<?xml version="1.0" encoding="UTF-8"?><svg id="Capa_1" xmlns="http://www.w3.org/2000/svg" viewBox="0 0 24 24"><defs><style>.cls-1{fill:#f9f8dd;}</style></defs><path class="cls-1" d="M12.59,2.16c.94,0,1.81,.17,2.63,.5s1.54,.79,2.15,1.37,1.1,1.25,1.44,2.02c.36,.77,.54,1.6,.54,2.48,0,.64-.1,1.18-.31,1.61s-.31,.64-.31,.64l-.21-1.06-1.02,.75-1.1-1.52c-.67,.26-1.28,.43-1.85,.52s-1.22,.13-1.98,.13c-.15,0-.3,0-.45,0s-.3-.02-.45-.03c0-.01,0-.02,0-.03s0-.02,0-.03c-.05-.06-.12-.1-.21-.12s-.17,.01-.23,.08c-.46,.41-1,.72-1.61,.94s-1.25,.33-1.91,.33c-.6,0-1.17-.09-1.69-.27-.54-.17-1.02-.4-1.45-.7-.43-.3-.79-.66-1.09-1.07-.29-.42-.5-.87-.62-1.35-.01-.01-.02-.02-.02-.03h0c-.01-.07-.02-.13-.03-.19s-.02-.11-.03-.16c0-.01,0-.03,0-.04s0-.03,0-.06c0-.06,0-.13,0-.19,0-.06,0-.13,0-.21h0v-.04c.01-.58,.15-1.12,.4-1.63,.26-.51,.61-.96,1.06-1.35s.97-.69,1.58-.92c.6-.22,1.24-.33,1.92-.33,.9,0,1.73,.2,2.51,.59s1.38,.93,1.82,1.61c.05,.08,.12,.12,.2,.13s.16,0,.22-.06c.08-.05,.12-.12,.13-.21s0-.17-.06-.25c-.22-.33-.47-.63-.76-.9s-.61-.51-.97-.71c.13-.03,.26-.05,.39-.08s.27-.05,.41-.08c.03,0,.05,0,.08,0s.05,0,.08,0c.14-.01,.28-.03,.41-.04s.27-.02,.41-.02ZM5.2,14.46c-.68,0-1.26-.24-1.74-.72s-.72-1.06-.72-1.74c0-.44,.07-.85,.21-1.23,.14-.38,.33-.74,.58-1.06,.51,.51,1.13,.92,1.85,1.22,.72,.3,1.49,.45,2.33,.45,.19,0,.38,0,.58-.03s.38-.05,.58-.09c-.13,.91-.54,1.67-1.22,2.28-.69,.61-1.5,.91-2.43,.91Zm2.46,.12c0,.82-.29,1.52-.87,2.1s-1.28,.87-2.1,.87c-.54,0-1-.19-1.38-.58s-.58-.85-.58-1.38c0-.24,.03-.48,.1-.71s.15-.45,.25-.65c.27,.27,.59,.48,.95,.63s.75,.23,1.16,.23c.46,0,.9-.07,1.32-.2s.8-.32,1.14-.57v.27Zm-4.19,3.25c.19,.1,.39,.18,.6,.24s.42,.09,.63,.09c.45,0,.87-.08,1.28-.23s.76-.37,1.07-.65v.52c0,.62-.21,1.14-.64,1.57s-.95,.64-1.57,.64c-.41,0-.76-.14-1.05-.43s-.43-.64-.43-1.05c0-.12,.01-.23,.04-.35s.05-.23,.08-.35Zm1.37,2.79c.45,0,.87-.1,1.25-.3,.38-.2,.7-.46,.96-.8v.85c0,.41-.14,.76-.43,1.05s-.64,.43-1.05,.43c-.27,0-.5-.1-.69-.29s-.29-.42-.29-.69c0-.05,0-.1,0-.14s0-.09,0-.12c.04,0,.08,0,.12,0,.04,0,.08,0,.12,0Zm9.77-2.13s.06-.02,.1-.02,.05,.03,.04,.1c-.03,.08-.15,.26-.38,.54s-.53,.51-.9,.69c-.06-.06-.17-.12-.33-.15s-.33-.06-.54-.06-.38,.02-.54,.06-.26,.09-.33,.15c-.37-.18-.67-.41-.9-.69s-.36-.46-.38-.54c-.01-.06,.01-.1,.08-.1s.11,0,.13,.02h.09s.1,0,.16,.02c.1,.09,.29,.18,.56,.28s.65,.14,1.13,.14,.85-.05,1.12-.14,.46-.19,.58-.28c.08-.01,.14-.02,.2-.02h.12Zm2.5-3.15c.24,.14,.47,.23,.69,.28s.33,.07,.33,.07c0,0-.13,0-.39,.02-.26,.01-.55-.03-.86-.13-.03,0-.04,0-.06,0s-.03,0-.04,0c-.09,.04-.18,.07-.27,.1s-.19,.04-.29,.06c.23-.09,.42-.22,.58-.39s.23-.37,.23-.59c0-.04,0-.08,0-.12s0-.09,0-.12c-.17-.15-.36-.29-.59-.41s-.46-.21-.7-.26c.12,.08,.21,.17,.29,.29s.12,.24,.12,.38c0,.22-.07,.4-.22,.55s-.33,.22-.55,.22-.4-.07-.55-.22-.22-.33-.22-.55c0-.14,.03-.27,.1-.37s.15-.2,.27-.26c-.06,.03-.12,.05-.17,.08s-.1,.06-.15,.1c-.1,.1-.19,.21-.25,.34s-.1,.25-.1,.37c0,.05,0,.1,0,.13s.02,.08,.03,.12l-.17-.1s-.06,0-.19,.03-.28,.09-.44,.22c0,0,.21-.33,.63-1s.93-.96,1.52-.88c.6,.09,1.06,.39,1.38,.89s.78,.72,1.38,.64c0,0-.08,.04-.24,.12s-.39,.11-.68,.1l-.11,.11c-.07,.07-.17,.15-.3,.24Zm-2.33,2.98c.1,.01,.18,.06,.23,.14s.06,.17,.02,.26c-.29,.65-.63,1.13-1,1.44s-.85,.46-1.44,.46-1.07-.15-1.44-.46-.7-.79-1-1.44c-.04-.09-.03-.18,.02-.26s.13-.13,.23-.14c.26-.05,.56-.1,.9-.13s.6-.04,.75,0c.08,.03,.17,.05,.27,.09s.19,.05,.27,.05,.17-.02,.27-.05,.19-.06,.27-.09c.15-.04,.4-.04,.75,0s.65,.08,.9,.13Zm-2.19-5.08v3.69c.12,0,.23,0,.34,.03s.2,.05,.26,.09l.25,.17c.12,.08,.11,.15-.03,.22s-.32,.11-.57,.11h-.5c-.19,0-.35-.02-.48-.07s-.19-.09-.19-.14l.92-4.1Zm1.33-1.35c-.06-.06-.1-.15-.1-.26s.03-.2,.1-.28c.08-.08,.16-.12,.26-.12s.18,.04,.24,.12c.01,0,.02,0,.03,.02s.02,.04,.05,.08c.04,.03,.08,.06,.12,.11s.1,.09,.16,.14c.12,.1,.26,.21,.44,.32s.37,.21,.58,.3c.19,.08,.39,.14,.6,.2s.39,.1,.56,.12c.17,.04,.3,.06,.4,.08s.15,.02,.15,.02c0,0-.05,0-.15,0s-.24,.02-.4,.03c-.17,0-.36,0-.58-.02s-.44-.04-.67-.08-.45-.1-.66-.17-.4-.16-.57-.25c-.09-.04-.17-.08-.23-.12s-.12-.08-.17-.12c-.04-.04-.07-.07-.11-.1s-.05-.04-.05-.04Zm4.52,.52l-.33-1.62-.73,.56-1.19-1.67c-.55,.19-1.08,.33-1.6,.41s-1.08,.12-1.71,.12h-.52c-.17,0-.33,0-.5-.02s-.33-.03-.48-.04c-.28,.22-.58,.41-.89,.57s-.64,.29-.99,.39c-.01,.23-.05,.45-.11,.65s-.12,.41-.2,.62c.03-.01,.06-.03,.1-.04s.07-.03,.1-.04c.21-.09,.4-.19,.58-.3s.33-.21,.44-.32c.06-.05,.12-.1,.16-.14s.09-.08,.12-.11c.03-.04,.04-.06,.05-.08s.02-.02,.03-.02c.06-.08,.14-.12,.24-.12s.18,.04,.26,.12c.06,.08,.1,.17,.1,.28s-.03,.2-.1,.26c0,0-.02,.01-.05,.04s-.07,.06-.11,.1c-.05,.04-.11,.08-.17,.12s-.14,.08-.23,.12c-.17,.09-.36,.17-.57,.25s-.43,.13-.66,.17c-.08,.01-.15,.03-.23,.04s-.15,.02-.23,.02c-.09,.19-.2,.38-.32,.56s-.26,.34-.41,.48v.21c.17-.18,.35-.34,.54-.48s.42-.23,.69-.27c.59-.08,1.1,.22,1.52,.88s.63,1,.63,1c-.17-.13-.31-.2-.44-.22s-.19-.03-.19-.03l-.17,.1s.02-.08,.03-.12,0-.08,0-.13c0-.13-.03-.25-.1-.37s-.15-.23-.25-.34c-.05-.04-.1-.07-.15-.1s-.11-.05-.17-.08c.12,.06,.21,.15,.27,.26s.1,.23,.1,.37c0,.22-.07,.4-.22,.55s-.33,.22-.55,.22-.4-.07-.55-.22-.22-.33-.22-.55c0-.14,.04-.27,.12-.38s.17-.21,.29-.29c-.22,.05-.43,.13-.63,.23s-.38,.22-.54,.35v.21c0,.09,0,.18,0,.26s-.02,.17-.03,.26c.06,.13,.16,.24,.28,.35s.27,.19,.43,.25c-.1-.01-.2-.03-.29-.06s-.18-.06-.27-.1c-.01,0-.03,0-.04,0s-.03,0-.06,0c-.03,.01-.05,.02-.09,.03s-.06,.02-.09,.03c-.05,.17-.12,.33-.19,.5s-.17,.32-.27,.46v1.21s0,.08,0,.12,0,.08,0,.13c.08,.1,.16,.21,.26,.32s.2,.21,.3,.32l2.17,2.17c.31,.32,.67,.57,1.08,.74s.79,.26,1.13,.26,.72-.09,1.13-.26,.77-.42,1.08-.74l2.17-2.17c.58-.56,1.02-1.2,1.32-1.91s.45-1.45,.45-2.2v-2.63l-.31,.48Zm3.38-4.71c.12-.12,.25-.14,.39-.08s.22,.17,.22,.33c0,.32-.04,.64-.12,.95s-.19,.62-.33,.91l-.35,.69c-.14,.29-.27,.6-.38,.9s-.22,.62-.31,.94l-.19,.83c-.06,.23-.14,.45-.23,.65s-.2,.4-.33,.6c-.12,.18-.25,.35-.4,.51s-.32,.3-.5,.43c.01-.13,.03-.26,.04-.4s.02-.28,.02-.4v-2.81l2.46-2.83-2.46,2.13v-.29c0-.1,0-.2,0-.3s0-.2,0-.3l2.48-2.48Zm-1.6,11.21c.08,.18,.09,.37,.03,.57s-.16,.35-.32,.45c-.15,.09-.31,.1-.47,.04-.16-.06-.28-.19-.36-.38-.04-.12-.06-.23-.06-.35s.02-.22,.06-.33l.56-1.37,.56,1.37Zm-.56-1.98c.09,0,.16-.03,.22-.09s.09-.13,.09-.22-.03-.16-.09-.22-.13-.09-.22-.09-.16,.03-.22,.09-.09,.13-.09,.22,.03,.16,.09,.22,.13,.09,.22,.09Z"/></svg>