<?xml version="1.0" encoding="UTF-8"?>
<svg id="Capa_1" data-name="Capa 1" xmlns="http://www.w3.org/2000/svg" viewBox="0 0 24 24">
  <defs>
    <style>
      .cls-1, .cls-2 {
        fill: #fefce6;
      }

      .cls-2 {
        fill-rule: evenodd;
      }
    </style>
  </defs>
  <path class="cls-2" d="M10.47,8.88c1.29,0,2.45,.64,3.14,1.66h3.55c.72,0,1.3-.58,1.3-1.3s-.58-1.3-1.3-1.3c-.24,0-.47,.07-.66,.18,.02-.11,.03-.22,.03-.33,0-1.15-.93-2.09-2.09-2.09-.88,0-1.64,.55-1.94,1.32-.18-.05-.37-.08-.57-.08-1.13,0-2.05,.88-2.12,2,.22-.04,.44-.06,.66-.06Z"/>
  <path class="cls-2" d="M15.7,14.77c.13-.28,.21-.59,.21-.92,0-1.18-.96-2.14-2.14-2.14-.28,0-.55,.06-.79,.15-.34-1.06-1.33-1.83-2.5-1.83-1.45,0-2.63,1.18-2.63,2.63,0,.05,0,.11,0,.16-.21-.1-.45-.16-.71-.16-.92,0-1.66,.75-1.66,1.66s.75,1.66,1.66,1.66h10.38l-1.83-1.22Z"/>
  <path class="cls-1" d="M12,.77c6.2,0,11.23,5.03,11.23,11.23s-5.03,11.23-11.23,11.23S.77,18.2,.77,12,5.8,.77,12,.77m0-.42C8.89,.34,5.96,1.56,3.76,3.76,1.56,5.96,.34,8.89,.34,12s1.21,6.04,3.41,8.24c2.2,2.2,5.13,3.41,8.24,3.41s6.04-1.21,8.24-3.41c2.2-2.2,3.41-5.13,3.41-8.24s-1.21-6.04-3.41-8.24C18.04,1.56,15.11,.34,12,.34h0Z"/>
  <path class="cls-1" d="M12,1.9c5.58,0,10.1,4.52,10.1,10.1s-4.52,10.1-10.1,10.1S1.9,17.58,1.9,12,6.42,1.9,12,1.9m0-.32C6.26,1.59,1.59,6.26,1.59,12s4.67,10.41,10.41,10.41,10.41-4.67,10.41-10.41S17.74,1.59,12,1.59h0Z"/>
</svg>