<?xml version="1.0" encoding="UTF-8"?>
<svg id="Capa_1" data-name="Capa 1" xmlns="http://www.w3.org/2000/svg" viewBox="0 0 24 24">
  <defs>
    <style>
      .cls-1, .cls-2 {
        fill: #fefce6;
      }

      .cls-2 {
        fill-rule: evenodd;
      }
    </style>
  </defs>
  <path class="cls-2" d="M18.52,16.61l-.89-.37-3.27-7.84c-.03-.08-.15-.08-.19,0l-.79,1.82-2.14-5.23c-.03-.08-.15-.08-.19,0l-4.79,11.23-1.01,.5c-.11,.05-.07,.21,.05,.21h13.14c.19,0,.24-.26,.06-.33Zm-6.18-5.68h-2.45c-.08,0-.13-.08-.1-.15l1.23-2.64c.04-.08,.16-.08,.2,0l1.23,2.64c.03,.07-.02,.15-.1,.15Zm2.88,3.12h-1.98c-.15,0-.25-.15-.19-.29l.99-2.28c.07-.16,.3-.16,.37,0l.99,2.28c.06,.13-.04,.29-.19,.29Z"/>
  <g>
    <path class="cls-1" d="M12,.77c6.2,0,11.23,5.03,11.23,11.23s-5.03,11.23-11.23,11.23S.77,18.2,.77,12,5.8,.77,12,.77m0-.42C8.89,.34,5.96,1.56,3.76,3.76,1.56,5.96,.34,8.89,.34,12s1.21,6.04,3.41,8.24c2.2,2.2,5.13,3.41,8.24,3.41s6.04-1.21,8.24-3.41c2.2-2.2,3.41-5.13,3.41-8.24s-1.21-6.04-3.41-8.24C18.04,1.56,15.11,.34,12,.34h0Z"/>
    <path class="cls-1" d="M12,1.9c5.58,0,10.1,4.52,10.1,10.1s-4.52,10.1-10.1,10.1S1.9,17.58,1.9,12,6.42,1.9,12,1.9m0-.32C6.26,1.59,1.59,6.26,1.59,12s4.67,10.41,10.41,10.41,10.41-4.67,10.41-10.41S17.74,1.59,12,1.59h0Z"/>
  </g>
</svg>